<svg width="17" height="17" viewBox="0 0 17 17" fill="none" xmlns="http://www.w3.org/2000/svg">
<path d="M16.8805 14.6436L15.5821 13.5183C15.4376 13.3931 15.2189 13.4087 15.0937 13.5532C14.9685 13.6977 14.9841 13.9164 15.1286 14.0416L15.7256 14.559H14.4552V3.79119C14.4552 3.59997 14.3002 3.44495 14.1089 3.44495H12.5509C12.3596 3.44495 12.2046 3.59997 12.2046 3.79119V14.559H11.339V10.4158C11.339 10.2246 11.1841 10.0696 10.9928 10.0696H9.43475C9.24353 10.0696 9.08851 10.2245 9.08851 10.4158V14.559H8.22294V7.5767C8.22294 7.38549 8.06795 7.23046 7.8767 7.23046H6.31864C6.12743 7.23046 5.9724 7.38545 5.9724 7.5767V14.559H5.10683V9.50404C5.10683 9.31282 4.95184 9.1578 4.76059 9.1578H3.20263C3.01142 9.1578 2.85639 9.31279 2.85639 9.50404V14.559H1.99082V1.27433L2.50819 1.87132C2.57669 1.95034 2.67305 1.99082 2.76997 1.99082C2.85032 1.99082 2.93107 1.96299 2.99658 1.90625C3.14108 1.78101 3.15671 1.56233 3.03144 1.41787L1.90619 0.119493C1.90443 0.117501 1.9028 0.115874 1.90107 0.113982C1.86465 0.0737395 1.8187 0.0416986 1.76557 0.0218432C1.6302 -0.0286587 1.4776 0.0102553 1.38291 0.119493L0.257656 1.41787C0.132447 1.5623 0.148086 1.78101 0.292585 1.90625C0.437118 2.03152 0.65576 2.01585 0.780969 1.87135L1.29834 1.2744V14.559H0.346242C0.154992 14.559 0 14.714 0 14.9052C0 15.0965 0.154992 15.2515 0.346242 15.2515H1.29837V16.0998C1.29837 16.291 1.45336 16.446 1.64461 16.446C1.83586 16.446 1.99086 16.291 1.99086 16.0998V15.2515H15.7256L15.1286 15.7689C14.9841 15.8941 14.9685 16.1128 15.0938 16.2572C15.1623 16.3363 15.2586 16.3767 15.3556 16.3767C15.4359 16.3767 15.5167 16.3489 15.5822 16.2922L16.8805 15.1669C16.8833 15.1645 16.8856 15.1623 16.8881 15.1599C16.8897 15.1586 16.8912 15.1572 16.8927 15.1558C16.8932 15.1553 16.8936 15.1549 16.894 15.1544C16.9305 15.1193 16.9597 15.0759 16.9782 15.0263C17.0287 14.8908 16.9897 14.7383 16.8805 14.6436ZM4.41445 14.559H3.54888V9.85025H4.41445V14.559ZM7.53052 14.559H6.66495V7.92291H7.53052V14.559ZM10.6466 14.559H9.78106V10.762H10.6466V14.559ZM13.7627 14.559H12.8971V4.13743H13.7627V14.559Z" fill="black"/>
<path d="M11.3958 0.856061L12.2075 1.02649L4.12594 6.3858C3.96656 6.49145 3.92307 6.70634 4.02875 6.86571C4.09539 6.96619 4.20543 7.02061 4.31762 7.02061C4.38333 7.02061 4.44977 7.00191 4.50867 6.9629L12.5762 1.61286L12.4092 2.408C12.3699 2.59514 12.4898 2.77872 12.677 2.81796C12.864 2.85728 13.0477 2.73738 13.0869 2.55025L13.4274 0.928743C13.4563 0.791249 13.3992 0.64997 13.2829 0.571079C13.2513 0.549564 13.2168 0.534423 13.1812 0.524562C13.1747 0.522437 13.1678 0.520478 13.1597 0.518784L11.5382 0.17832C11.3512 0.138941 11.1675 0.258904 11.1283 0.446036C11.0889 0.633169 11.2087 0.816749 11.3958 0.856061Z" fill="black"/>
</svg>
