<svg width="28" height="13" viewBox="0 0 28 13" fill="none" xmlns="http://www.w3.org/2000/svg">
<path d="M27.5532 1.50115H16.6489V1.23302C16.6489 0.98621 16.4488 0.786119 16.202 0.786119C15.9551 0.786119 15.7551 0.98621 15.7551 1.23302V1.50115H4.8508C4.60399 1.50115 4.4039 1.70125 4.4039 1.94805C4.4039 2.19486 4.60399 2.39495 4.8508 2.39495H15.7551V3.70585L3.50886 3.69762C3.50611 3.69059 3.50391 3.68344 3.50087 3.67653L2.16596 0.682082C2.114 0.56559 2.01479 0.476866 1.89329 0.438195L0.582395 0.021091C0.439269 -0.0245521 0.282855 0.00494333 0.166007 0.099328C0.0492176 0.193713 -0.0123946 0.340474 0.00208485 0.489975L0.353405 4.11979L0.0700728 7.04292C0.0555933 7.19242 0.117146 7.33918 0.233935 7.43362C0.314555 7.49875 0.413945 7.53295 0.514884 7.53295C0.560289 7.53295 0.605932 7.52604 0.650324 7.51192L1.69547 7.17943C1.80701 7.14397 1.90021 7.06609 1.95491 6.96265L2.68937 5.57537C2.70367 5.57733 10.4327 5.89695 10.4327 5.89695C11.0272 7.93117 12.634 9.53737 14.6685 10.1312L14.3031 9.97876L14.6953 11.2137H14.2654C14.0186 11.2137 13.8185 11.4138 13.8185 11.6606C13.8185 11.9074 14.0186 12.1075 14.2654 12.1075H21.9637C22.7759 12.1075 23.5295 11.7412 24.0314 11.1025C24.1839 10.9085 24.1502 10.6275 23.9561 10.475C23.762 10.3225 23.4811 10.3562 23.3286 10.5503C22.9973 10.972 22.4998 11.2138 21.9637 11.2138H19.9684L19.7508 10.3796H21.7294C22.8214 10.3796 23.7098 9.49114 23.7098 8.39916C23.7098 5.81127 21.6044 3.70591 19.0165 3.70591H16.6488V2.39501H27.5531C27.8 2.39501 28 2.19492 28 1.94811C28 1.7013 27.8 1.50115 27.5532 1.50115ZM1.25048 6.383L1.025 6.45474L1.20585 4.58874L2.19975 4.58987L1.25048 6.383ZM1.21026 3.69494L0.957014 1.07815L1.43126 1.22908L2.53122 3.69649L1.21026 3.69494ZM3.1517 4.70219L3.21057 4.59106L10.2 4.59916C10.2094 4.73216 10.2232 4.86396 10.2409 4.99452L3.1517 4.70219ZM15.619 11.2137L15.379 10.2936C15.7146 10.3498 16.0592 10.3795 16.4105 10.3795H18.8272L19.0448 11.2137H15.619ZM19.2154 5.75222L19.3953 4.61859C21.22 4.79991 22.6679 6.27783 22.8044 8.11523H21.2332C20.6345 8.11523 20.0682 7.85412 19.6796 7.39888C19.2909 6.94365 19.1217 6.34349 19.2154 5.75222ZM18.4933 4.59964L18.3327 5.61219C18.1978 6.46207 18.441 7.32482 18.9998 7.97925C19.5586 8.63369 20.3726 9.00902 21.2331 9.00902H22.6281C22.4324 9.29647 22.1027 9.48571 21.7294 9.48571H16.4105C13.8651 9.48571 11.7314 7.69312 11.2036 5.30413L11.128 4.59964H18.4933Z" fill="black"/>
<path d="M13.5951 6.20843H17.066C17.3129 6.20843 17.5129 6.00834 17.5129 5.76153C17.5129 5.51473 17.3129 5.31464 17.066 5.31464H13.5951C13.3483 5.31464 13.1482 5.51473 13.1482 5.76153C13.1482 6.00834 13.3483 6.20843 13.5951 6.20843Z" fill="black"/>
<path d="M12.8099 5.59127C12.7984 5.56248 12.822 5.61994 12.8099 5.59127V5.59127Z" fill="black"/>
<path d="M12.1209 6.11241C12.2708 6.2292 12.4824 6.23963 12.6417 6.13565C12.8188 6.02011 12.8923 5.78606 12.8098 5.59068C12.7439 5.4261 12.5776 5.317 12.4013 5.31467C12.2047 5.31211 12.0278 5.44499 11.97 5.63167C11.9165 5.80453 11.9781 6.00117 12.1209 6.11241Z" fill="black"/>
</svg>
