<svg width="60" height="62" viewBox="0 0 60 62" fill="none" xmlns="http://www.w3.org/2000/svg">
<g clip-path="url(#clip0_807_20502)">
<path d="M58.4294 54.7289C58.3593 54.9948 58.2822 55.2818 58.198 55.5897L57.9316 56.5274C57.8381 56.8446 57.7446 57.1525 57.6511 57.451C57.553 57.7519 57.4618 58.0249 57.3707 58.2628C57.2725 58.0179 57.1743 57.745 57.0691 57.451C56.964 57.1571 56.8588 56.8423 56.7536 56.5274C56.6484 56.2125 56.5573 55.8976 56.4661 55.5897C56.375 55.2818 56.2908 54.9948 56.2277 54.7289H54.615C54.8919 55.6948 55.2196 56.6455 55.5967 57.577C55.9426 58.4214 56.2908 59.1842 56.6414 59.8653C56.5607 60.0915 56.4342 60.2987 56.2698 60.4741C56.1848 60.5509 56.085 60.6098 55.9765 60.6471C55.8681 60.6844 55.7532 60.6993 55.6387 60.691C55.5104 60.7015 55.3814 60.7015 55.2531 60.691C55.1099 60.6657 54.9692 60.6283 54.8324 60.579L54.5659 61.7897C54.7272 61.8531 54.8938 61.9023 55.0638 61.9366C55.2803 61.9836 55.5013 62.0071 55.7229 62.0066C55.9764 62.0104 56.2291 61.9774 56.4731 61.9086C56.6835 61.8453 56.8789 61.7406 57.0481 61.6007C57.2304 61.4478 57.3887 61.2685 57.5179 61.0689C57.6799 60.8211 57.8229 60.5615 57.9456 60.2922C58.3429 59.4431 58.7076 58.566 59.0395 57.661C59.3714 56.756 59.6916 55.7879 60.0001 54.7569L58.4294 54.7289ZM53.9559 54.9109L53.4931 54.7919L52.9462 54.694L52.3712 54.631C52.1749 54.631 51.9856 54.631 51.8033 54.631C51.4118 54.6256 51.0224 54.6895 50.6533 54.8199C50.331 54.9334 50.0368 55.1148 49.7909 55.3517C49.5521 55.5866 49.3678 55.8708 49.251 56.1845C49.1251 56.5296 49.0633 56.8948 49.0687 57.2621C49.0262 57.9277 49.2365 58.5848 49.6577 59.1025C49.8768 59.329 50.1428 59.5051 50.437 59.6187C50.7312 59.7323 51.0467 59.7806 51.3615 59.7603C51.5523 59.7617 51.7427 59.743 51.9295 59.7043C52.1035 59.6671 52.2728 59.6108 52.4343 59.5364V59.7323C52.4355 59.9918 52.3378 60.2419 52.1609 60.4321C52.034 60.5398 51.8866 60.6207 51.7275 60.67C51.5684 60.7193 51.401 60.736 51.2353 60.719C50.6733 60.7268 50.1154 60.6221 49.5946 60.4111L49.3281 61.6847C49.6256 61.7848 49.9303 61.862 50.2396 61.9156C50.5638 61.9723 50.8923 62.0004 51.2213 61.9996C51.9673 62.0614 52.7083 61.8333 53.2898 61.3628C53.5355 61.1034 53.7247 60.796 53.8454 60.46C53.9661 60.1239 54.0157 59.7666 53.991 59.4104L53.9559 54.9109ZM50.6183 57.2341C50.604 56.8752 50.7074 56.5214 50.9128 56.2264C51.0186 56.0921 51.1556 55.9855 51.312 55.916C51.4684 55.8465 51.6395 55.8161 51.8103 55.8276H52.1679L52.4343 55.8626V58.2838C52.3232 58.3436 52.2056 58.3906 52.0838 58.4237C51.9427 58.4656 51.7962 58.4868 51.649 58.4867C50.9619 58.4867 50.6183 58.0622 50.6183 57.2131M48.9074 54.7989C48.8121 54.7618 48.7135 54.7337 48.6129 54.7149L48.2623 54.6519L47.9187 54.61H47.6242C47.2071 54.6058 46.7909 54.648 46.3832 54.7359C46.056 54.8099 45.7331 54.901 45.4155 55.0088V60.0822H46.9371V55.9885C47.0361 55.9624 47.1368 55.9437 47.2386 55.9325C47.353 55.9258 47.4677 55.9258 47.5822 55.9325C47.7799 55.9316 47.9772 55.9504 48.1712 55.9885L48.648 56.0935L48.9074 54.7989ZM39.3082 57.4301C39.3053 57.8029 39.3621 58.1738 39.4765 58.5287C39.5822 58.8572 39.7594 59.1583 39.9954 59.4104C40.2456 59.669 40.5495 59.8697 40.8859 59.9982C41.2889 60.1502 41.7173 60.2238 42.148 60.2152C42.3395 60.2257 42.5315 60.2257 42.723 60.2152L43.2559 60.1382C43.4096 60.1117 43.5618 60.0766 43.7117 60.0332C43.8248 60.0032 43.935 59.9634 44.0412 59.9143L43.8379 58.6827C43.6259 58.7699 43.4048 58.8333 43.1788 58.8716C42.9083 58.9229 42.6337 58.9487 42.3584 58.9486C41.9901 58.9691 41.6246 58.8736 41.3136 58.6757C41.1896 58.5924 41.0856 58.4826 41.0092 58.3544C40.9328 58.2261 40.8859 58.0825 40.8719 57.9339H44.3217V57.654C44.3217 57.549 44.3217 57.4511 44.3217 57.3601C44.3743 56.6163 44.1355 55.8812 43.6556 55.3097C43.4206 55.0723 43.1379 54.8873 42.8261 54.7666C42.5143 54.646 42.1805 54.5926 41.8465 54.61C41.52 54.61 41.1964 54.6718 40.8929 54.7919C40.5851 54.9131 40.3058 55.0966 40.0725 55.3307C39.823 55.5854 39.6275 55.8877 39.4976 56.2195C39.344 56.6164 39.2702 57.0397 39.2802 57.4651M40.8438 56.8842C40.864 56.7531 40.8969 56.6242 40.942 56.4994C40.9838 56.3788 41.0481 56.2672 41.1313 56.1705C41.2163 56.0723 41.3216 55.9935 41.4398 55.9396C41.5791 55.8795 41.7299 55.8508 41.8816 55.8556C42.034 55.8505 42.1854 55.8817 42.3233 55.9465C42.437 56.0046 42.5373 56.0856 42.6178 56.1845C42.6967 56.2793 42.7563 56.3887 42.7931 56.5064C42.83 56.6292 42.8512 56.7561 42.8562 56.8842H40.8438ZM33.7269 60.1032H35.2484V55.9675L35.578 55.9325H35.9286C36.062 55.9205 36.1963 55.9425 36.3189 55.9963C36.4415 56.0502 36.5485 56.1342 36.6297 56.2405C36.786 56.5647 36.8538 56.9244 36.8261 57.2831V60.1242H38.3476V57.0242C38.3515 56.6873 38.3138 56.3512 38.2354 56.0235C38.1685 55.7398 38.0391 55.4745 37.8568 55.2468C37.6701 55.0217 37.4287 54.8482 37.1556 54.7429C36.791 54.6154 36.4059 54.5561 36.0197 54.568C35.2475 54.5697 34.4789 54.6732 33.7339 54.8759L33.7269 60.1032ZM27.7388 60.1032V53.0215H32.5138V54.3581H29.3305V55.7576H32.1352V57.0242H29.3305V58.7246H32.7522V60.0612L27.7388 60.1032Z" fill="white"/>
<path d="M26.8062 56.0732L26.3294 55.9682C26.0208 55.9156 25.7055 55.9156 25.3969 55.9682C25.295 55.9789 25.1942 55.9976 25.0953 56.0242V60.1179H23.5738V55.0445C23.8913 54.9368 24.2143 54.8457 24.5414 54.7716C24.9491 54.6837 25.3654 54.6414 25.7825 54.6456H26.077L26.4206 54.6876L26.7712 54.7506C26.8717 54.7693 26.9704 54.7974 27.0657 54.8345L26.8062 56.0732ZM20.0679 54.5826C20.4477 54.5729 20.8266 54.6249 21.1898 54.7366C21.4554 54.8255 21.6959 54.9767 21.891 55.1774C22.0764 55.3746 22.209 55.6153 22.2766 55.8772C22.3548 56.174 22.3925 56.48 22.3888 56.7869V59.9429C22.1738 59.9896 21.8723 60.0455 21.4843 60.1108C21.0202 60.181 20.5512 60.2137 20.0819 60.2088C19.764 60.2124 19.4467 60.1819 19.1353 60.1179C18.8848 60.0623 18.6469 59.9602 18.4341 59.8169C18.2325 59.679 18.0706 59.4908 17.9643 59.2711C17.8486 59.0116 17.7935 58.7293 17.8031 58.4454C17.7938 58.1674 17.8592 57.892 17.9924 57.6477C18.1144 57.4354 18.288 57.2573 18.4972 57.1298C18.7138 56.9983 18.9508 56.9038 19.1984 56.8499C19.4775 56.7924 19.7619 56.7642 20.0468 56.7659C20.222 56.7565 20.3976 56.7565 20.5727 56.7659C20.6981 56.7769 20.8224 56.798 20.9444 56.8289V56.6889C20.9493 56.5744 20.9307 56.46 20.8897 56.3529C20.8487 56.2458 20.7862 56.1482 20.706 56.0662C20.4747 55.8876 20.1834 55.8049 19.8926 55.8352C19.6368 55.8355 19.3814 55.8542 19.1283 55.8912C18.906 55.9226 18.6875 55.9765 18.4762 56.0521L18.2799 54.8275L18.6094 54.7436L19.0442 54.6596L19.542 54.5966C19.7173 54.5966 19.8926 54.5966 20.0679 54.5966M20.1941 59.0402H20.6218H20.9514V57.8856L20.6779 57.8436H20.3413C20.2083 57.8348 20.0748 57.8348 19.9417 57.8436C19.8272 57.858 19.7158 57.8911 19.6121 57.9415C19.5214 57.986 19.444 58.0536 19.3877 58.1375C19.3292 58.2293 19.2998 58.3366 19.3036 58.4454C19.2925 58.5422 19.3089 58.6402 19.3511 58.7281C19.3933 58.816 19.4594 58.8902 19.542 58.9422C19.7461 59.0445 19.973 59.0927 20.2011 59.0822M13.5539 53.484L15.0755 53.2391V54.8206H16.9056V56.0801H15.0965V57.9625C15.084 58.2272 15.1421 58.4904 15.2648 58.7253C15.3419 58.8351 15.4489 58.9206 15.5732 58.9714C15.6975 59.0223 15.8338 59.0364 15.966 59.0122C16.1354 59.0107 16.3043 58.9943 16.4708 58.9632C16.6335 58.9369 16.7932 58.8948 16.9476 58.8373L17.158 60.0199C16.9599 60.1004 16.756 60.1659 16.548 60.2158C16.2764 60.276 15.9987 60.3042 15.7206 60.2998C15.3693 60.3109 15.0193 60.2539 14.6898 60.1318C14.4364 60.0327 14.2122 59.8715 14.0377 59.663C13.8717 59.4586 13.7543 59.2194 13.6942 58.9632C13.6267 58.6529 13.5938 58.3361 13.596 58.0185L13.5539 53.484ZM10.1041 54.6736C10.484 54.6639 10.8629 54.7159 11.226 54.8275C11.4918 54.9162 11.7323 55.0674 11.9272 55.2684C12.1128 55.4654 12.2455 55.7062 12.3128 55.9682C12.39 56.2652 12.4278 56.5711 12.425 56.8779V60.0339C12.2053 60.0805 11.9015 60.1365 11.5135 60.2018C11.0494 60.272 10.5805 60.3048 10.1111 60.2998C9.79323 60.3035 9.47586 60.273 9.16452 60.2088C8.91391 60.1534 8.67603 60.0513 8.46334 59.9079C8.26176 59.7699 8.09981 59.5818 7.99355 59.3621C7.87807 59.1025 7.82294 58.8202 7.83229 58.5364C7.82302 58.2584 7.88839 57.9829 8.02161 57.7386C8.14336 57.5262 8.31705 57.3481 8.52646 57.2208C8.74302 57.0893 8.97998 56.9947 9.22764 56.9409C9.50675 56.8835 9.79109 56.8554 10.0761 56.8569C10.2512 56.8474 10.4268 56.8474 10.6019 56.8569C10.7273 56.8678 10.8516 56.8889 10.9736 56.9199V56.7799C10.9795 56.6659 10.962 56.5518 10.9222 56.4447C10.8824 56.3376 10.8212 56.2398 10.7422 56.1571C10.5091 55.9768 10.2149 55.894 9.9218 55.9262C9.66602 55.9265 9.4106 55.9452 9.15752 55.9822C8.93518 56.0133 8.71666 56.0672 8.50542 56.1431L8.30909 54.9185L8.63864 54.8345L9.07338 54.7506L9.57121 54.6876C9.74417 54.6876 9.91946 54.6876 10.0971 54.6876M10.2163 59.1312H10.644H10.9736V57.9765L10.7001 57.9345H10.3635C10.2281 57.9255 10.0923 57.9255 9.95686 57.9345C9.84231 57.9487 9.73093 57.9818 9.62731 58.0325C9.53636 58.0767 9.45891 58.1444 9.40293 58.2285C9.34437 58.3203 9.31503 58.4276 9.31878 58.5364C9.30765 58.6332 9.32413 58.7311 9.3663 58.819C9.40847 58.9069 9.47464 58.9812 9.55719 59.0332C9.76125 59.1354 9.9882 59.1836 10.2163 59.1732M7.04697 56.6959C7.0532 57.148 6.99175 57.5985 6.86465 58.0325C6.75341 58.4061 6.58041 58.7585 6.35279 59.0752C6.1361 59.3685 5.86759 59.6198 5.56046 59.8169C5.25071 60.0156 4.90924 60.1599 4.55077 60.2438C4.58386 60.3766 4.66344 60.4933 4.77514 60.5727C4.90982 60.6664 5.05908 60.7374 5.21689 60.7826C5.41846 60.8412 5.62501 60.881 5.83392 60.9016L6.59821 60.9716L6.26866 62.1332C5.81129 62.1205 5.35601 62.0667 4.90837 61.9722C4.57275 61.9031 4.2491 61.7852 3.94775 61.6224C3.70126 61.4865 3.48811 61.2977 3.3237 61.0695C3.16506 60.8391 3.04653 60.5836 2.97311 60.3138C2.54743 60.223 2.14139 60.0571 1.77409 59.8239C1.41803 59.6543 1.09881 59.4165 0.834509 59.1242C0.558759 58.8006 0.347001 58.4278 0.210459 58.0255C0.0544232 57.5563 -0.0214325 57.0643 -0.013924 56.57C-0.0241289 56.0245 0.0735654 55.4823 0.273563 54.9745C0.448592 54.5409 0.711138 54.1479 1.04487 53.8199C1.36573 53.511 1.7479 53.2726 2.16675 53.1201C2.59827 52.9642 3.0541 52.886 3.51301 52.8892C3.99056 52.8816 4.46557 52.9598 4.91537 53.1201C5.33478 53.2714 5.71719 53.51 6.03727 53.8199C6.36817 54.1474 6.62621 54.5408 6.79454 54.9745C6.98632 55.4842 7.07913 56.0257 7.068 56.57M1.66892 56.57C1.66406 56.8871 1.7066 57.2031 1.79512 57.5077C1.87127 57.7618 1.99499 57.9993 2.15974 58.2075C2.31703 58.4054 2.5188 58.5636 2.74873 58.6693C2.99891 58.7771 3.26855 58.8328 3.54107 58.8328C3.81358 58.8328 4.08321 58.7771 4.33339 58.6693C4.56346 58.5639 4.76529 58.4056 4.92239 58.2075C5.08879 57.9993 5.21482 57.762 5.29402 57.5077C5.38214 57.203 5.42466 56.8871 5.42022 56.57C5.41998 56.2499 5.37274 55.9317 5.27999 55.6253C5.20172 55.3706 5.0756 55.1331 4.90837 54.9255C4.75108 54.7276 4.54931 54.5693 4.31938 54.4637C4.07031 54.3526 3.79979 54.2977 3.52704 54.3027C3.25117 54.2964 2.97759 54.3539 2.72769 54.4707C2.49825 54.5803 2.29683 54.7406 2.1387 54.9395C1.97396 55.1477 1.85023 55.3851 1.77409 55.6393C1.68655 55.9417 1.64403 56.2553 1.64788 56.57" fill="white"/>
<path d="M33.2149 43.5395V50.6002H30.1086C29.8433 50.6057 29.5801 50.5532 29.3373 50.4462C29.1011 50.3265 28.9112 50.1321 28.7974 49.8934C28.6748 50.1404 28.4687 50.3362 28.2154 50.4462C27.9594 50.5499 27.6854 50.6022 27.4091 50.6002H15.489V44.2672C15.489 43.8543 15.9308 43.8404 15.9378 43.8404H17.0597V49.2636H18.9739V43.9663C18.9739 43.5534 19.4226 43.5395 19.4226 43.5395H20.5445V46.7304C20.6424 46.5565 20.76 46.3945 20.8951 46.2476C21.0663 46.0631 21.2622 45.903 21.4771 45.7717C21.7066 45.6313 21.9543 45.523 22.2133 45.4498C22.5012 45.372 22.7986 45.3343 23.0968 45.3379C23.4767 45.3364 23.8547 45.3906 24.2187 45.4988C24.5795 45.6066 24.9106 45.7957 25.1863 46.0516C25.4927 46.3337 25.7322 46.6803 25.8875 47.0663C26.0723 47.5654 26.1603 48.0949 26.147 48.6268V49.2566H27.1286C27.2843 49.2634 27.4396 49.2372 27.5844 49.1796C27.6929 49.1316 27.7836 49.0508 27.8438 48.9487C27.9091 48.8322 27.9497 48.7036 27.963 48.5708C27.9731 48.3937 27.9731 48.2161 27.963 48.039V43.9593C27.963 43.5464 28.4188 43.5325 28.4258 43.5325H29.5337V48.039C29.5232 48.2161 29.5232 48.3937 29.5337 48.5708C29.5468 48.7037 29.5874 48.8323 29.6529 48.9487C29.713 49.0508 29.8038 49.1316 29.9123 49.1796C30.0596 49.237 30.2171 49.2632 30.3751 49.2566H31.6372V43.9593C31.6372 43.5464 32.086 43.5325 32.093 43.5325L33.2149 43.5395ZM24.5483 48.7108C24.5829 48.1935 24.4394 47.68 24.1416 47.2553C23.9759 47.0772 23.7717 46.9392 23.5444 46.8519C23.3172 46.7646 23.0729 46.7302 22.8304 46.7514C22.5035 46.7467 22.1798 46.8161 21.8838 46.9543C21.616 47.0909 21.3777 47.2788 21.1826 47.5072C20.9741 47.7456 20.8124 48.0209 20.7058 48.3189C20.5964 48.6196 20.5395 48.9367 20.5375 49.2566H24.5763L24.5483 48.7108ZM12.8245 44.883C12.9218 44.8837 13.0183 44.8641 13.1076 44.8255C13.1969 44.787 13.2772 44.7303 13.3434 44.6591C13.475 44.5158 13.5479 44.3286 13.5479 44.1343C13.5479 43.9399 13.475 43.7527 13.3434 43.6094C13.2772 43.5382 13.1969 43.4815 13.1076 43.443C13.0183 43.4044 12.9218 43.3849 12.8245 43.3855C12.7284 43.3858 12.6333 43.4058 12.5453 43.4444C12.4572 43.4829 12.378 43.5391 12.3127 43.6094C12.1748 43.7494 12.0975 43.9379 12.0975 44.1343C12.0975 44.3306 12.1748 44.5191 12.3127 44.6591C12.3787 44.7282 12.4581 44.7831 12.5461 44.8204C12.6342 44.8577 12.7289 44.8766 12.8245 44.876M13.5888 45.9537C13.8504 46.2109 14.0495 46.5245 14.1708 46.8704C14.3211 47.3213 14.3923 47.7948 14.3811 48.2699V50.5722H2.67144C2.1922 50.5957 1.7136 50.5145 1.26908 50.3343C0.953674 50.1981 0.674974 49.9895 0.455704 49.7255C0.270589 49.4933 0.138935 49.2233 0.0700629 48.9347C0.0082023 48.6827 -0.0247414 48.4244 -0.0281126 48.165C-0.0496966 47.7885 0.0192387 47.4123 0.172925 47.0678C0.326611 46.7233 0.560599 46.4205 0.855381 46.1846C1.61636 45.6775 2.52224 45.4318 3.43572 45.4848H5.13258V49.2216H9.69727L9.5991 49.1236C9.5096 49.0266 9.42977 48.9212 9.3607 48.8088C9.27213 48.6639 9.2015 48.5088 9.15035 48.3469C9.0894 48.1569 9.05864 47.9586 9.05919 47.7591C9.05782 47.431 9.12716 47.1064 9.26253 46.8074C9.39664 46.5122 9.58719 46.246 9.82347 46.0237C10.066 45.796 10.349 45.6157 10.6579 45.4918C10.9862 45.3636 11.3361 45.2995 11.6886 45.3029C12.0277 45.3031 12.3652 45.3502 12.6913 45.4428C13.0082 45.5351 13.2988 45.7005 13.5397 45.9257M3.58297 46.8074H3.17629C2.90438 46.8005 2.6335 46.8432 2.37694 46.9333C2.18993 47.0007 2.01999 47.1082 1.8791 47.2483C1.76135 47.3679 1.67469 47.5144 1.62667 47.6751C1.58083 47.8296 1.55723 47.9898 1.55656 48.151C1.54435 48.3053 1.56842 48.4603 1.62686 48.6036C1.68529 48.747 1.77647 48.8747 1.89313 48.9767C2.14913 49.1623 2.46049 49.256 2.77661 49.2426H3.62504L3.58297 46.8074ZM12.7754 47.927C12.7981 47.57 12.7073 47.2149 12.516 46.9124C12.4166 46.7982 12.2938 46.7066 12.1559 46.6439C12.018 46.5811 11.8682 46.5486 11.7167 46.5486C11.5651 46.5486 11.4153 46.5811 11.2774 46.6439C11.1395 46.7066 11.0167 46.7982 10.9173 46.9124C10.7025 47.211 10.5962 47.5739 10.6158 47.941C10.613 48.1195 10.6415 48.2971 10.6999 48.4659C10.7536 48.6147 10.8345 48.7523 10.9384 48.8717C11.0357 48.9835 11.155 49.074 11.2889 49.1377C11.4294 49.2031 11.5827 49.2366 11.7377 49.2356H12.7825L12.7754 47.927ZM10.749 44.848C10.8458 44.8496 10.9419 44.8311 11.0312 44.7938C11.1205 44.7564 11.2011 44.7011 11.2679 44.6311C11.337 44.5622 11.3919 44.4804 11.4293 44.3903C11.4667 44.3003 11.4859 44.2038 11.4859 44.1063C11.4859 44.0088 11.4667 43.9123 11.4293 43.8222C11.3919 43.7322 11.337 43.6503 11.2679 43.5814C11.2011 43.5115 11.1205 43.4561 11.0312 43.4188C10.9419 43.3814 10.8458 43.363 10.749 43.3645C10.6517 43.3639 10.5553 43.3834 10.466 43.422C10.3766 43.4605 10.2963 43.5172 10.2302 43.5884C10.0986 43.7317 10.0256 43.9189 10.0256 44.1133C10.0256 44.3076 10.0986 44.4948 10.2302 44.6381C10.2963 44.7093 10.3766 44.766 10.466 44.8046C10.5553 44.8431 10.6517 44.8627 10.749 44.862M4.05977 44.862C4.15709 44.8627 4.2535 44.8431 4.34283 44.8046C4.43216 44.766 4.51247 44.7093 4.57865 44.6381C4.71021 44.4948 4.78318 44.3076 4.78318 44.1133C4.78318 43.9189 4.71021 43.7317 4.57865 43.5884C4.51247 43.5172 4.43216 43.4605 4.34283 43.422C4.2535 43.3834 4.15709 43.3639 4.05977 43.3645C3.96363 43.3648 3.86858 43.3849 3.78052 43.4234C3.69247 43.4619 3.61329 43.5181 3.54791 43.5884C3.41002 43.7285 3.33275 43.9169 3.33275 44.1133C3.33275 44.3096 3.41002 44.4981 3.54791 44.6381C3.6139 44.7072 3.69335 44.7621 3.78138 44.7994C3.8694 44.8367 3.96414 44.8556 4.05977 44.855M2.02635 44.855C1.92903 44.8557 1.83264 44.8361 1.7433 44.7976C1.65397 44.759 1.57365 44.7023 1.50747 44.6311C1.37591 44.4879 1.30294 44.3006 1.30294 44.1063C1.30294 43.912 1.37591 43.7247 1.50747 43.5814C1.57365 43.5102 1.65397 43.4535 1.7433 43.415C1.83264 43.3764 1.92903 43.3569 2.02635 43.3575C2.12316 43.356 2.21924 43.3744 2.30854 43.4118C2.39784 43.4491 2.47843 43.5045 2.54523 43.5744C2.61434 43.6433 2.66917 43.7251 2.70658 43.8152C2.74399 43.9053 2.76325 44.0018 2.76325 44.0993C2.76325 44.1968 2.74399 44.2933 2.70658 44.3833C2.66917 44.4734 2.61434 44.5552 2.54523 44.6241C2.47843 44.6941 2.39784 44.7495 2.30854 44.7868C2.21924 44.8241 2.12316 44.8426 2.02635 44.841" fill="white"/>
<path d="M56.4169 44.876C56.5137 44.8775 56.6098 44.859 56.6991 44.8217C56.7884 44.7844 56.869 44.729 56.9358 44.659C57.0049 44.5901 57.0597 44.5083 57.0971 44.4183C57.1346 44.3282 57.1538 44.2317 57.1538 44.1342C57.1538 44.0367 57.1346 43.9402 57.0971 43.8501C57.0597 43.7601 57.0049 43.6782 56.9358 43.6093C56.869 43.5394 56.7884 43.484 56.6991 43.4467C56.6098 43.4093 56.5137 43.3909 56.4169 43.3924C56.3196 43.3918 56.2232 43.4113 56.1339 43.4499C56.0445 43.4884 55.9642 43.5451 55.898 43.6164C55.7665 43.7596 55.6935 43.9469 55.6935 44.1412C55.6935 44.3355 55.7665 44.5228 55.898 44.666C55.9642 44.7372 56.0445 44.7939 56.1339 44.8325C56.2232 44.871 56.3196 44.8906 56.4169 44.8899M59.7896 46.8773C59.9398 47.3283 60.0109 47.8017 60 48.2769V50.5791H37.8497V50.922C37.8617 51.2869 37.8022 51.6506 37.6744 51.9927C37.5734 52.2587 37.4127 52.4981 37.2046 52.6924C37.0033 52.8678 36.7628 52.9925 36.5034 53.0563C36.2357 53.1271 35.9599 53.1624 35.683 53.1613C35.5141 53.1626 35.3453 53.1508 35.1782 53.1263C35.0169 53.1263 34.8767 53.0703 34.7504 53.0353C34.6456 53.0091 34.5426 52.9764 34.4419 52.9373L34.2947 52.8744L34.6733 51.8107L34.9468 51.8947C35.0995 51.9382 35.2577 51.9594 35.4166 51.9577C35.6394 51.9713 35.8601 51.9069 36.0406 51.7757C36.1241 51.6892 36.1874 51.5854 36.2262 51.4718C36.265 51.3581 36.2782 51.2373 36.265 51.1179V46.0795C36.265 45.6667 36.7137 45.6527 36.7208 45.6527H37.8356V49.2495H39.7639V43.9523C39.7639 43.5394 40.2196 43.5254 40.2196 43.5254H41.3345V46.7163C41.4322 46.5424 41.5499 46.3803 41.6851 46.2335C41.8539 46.0492 42.0474 45.8891 42.2601 45.7577C42.4894 45.617 42.7372 45.5086 42.9963 45.4358C43.2842 45.358 43.5816 45.3204 43.8798 45.3238C44.26 45.3248 44.638 45.3814 45.0017 45.4917C45.3649 45.5987 45.6984 45.7879 45.9763 46.0446C46.2827 46.3266 46.5222 46.6732 46.6775 47.0592C46.8635 47.558 46.9515 48.0878 46.937 48.6197V49.2495H55.3511L55.2529 49.1516C55.163 49.055 55.0831 48.9494 55.0145 48.8367C54.926 48.6918 54.8554 48.5367 54.8042 48.3748C54.7448 48.1823 54.7164 47.9815 54.7201 47.78C54.7187 47.4519 54.788 47.1273 54.9234 46.8283C55.0577 46.5332 55.2482 46.267 55.4843 46.0446C55.727 45.8171 56.0099 45.6367 56.3188 45.5127C56.6471 45.3847 56.997 45.3206 57.3495 45.3238C57.6886 45.3233 58.0262 45.3704 58.3522 45.4638C58.6698 45.5543 58.9608 45.7199 59.2006 45.9466C59.4626 46.2035 59.6617 46.5172 59.7826 46.8633M45.3593 48.7037C45.3939 48.1864 45.2504 47.6729 44.9526 47.2482C44.7873 47.0697 44.5831 46.9314 44.3557 46.8441C44.1284 46.7567 43.884 46.7226 43.6414 46.7443C43.3169 46.7404 42.9957 46.8098 42.7018 46.9473C42.4342 47.0842 42.196 47.272 42.0006 47.5001C41.793 47.7391 41.6313 48.0143 41.5238 48.3118C41.4153 48.6127 41.3584 48.9298 41.3556 49.2495H45.3944L45.3593 48.7037ZM58.4363 47.927C58.4594 47.5699 58.3686 47.2147 58.1769 46.9123C58.0775 46.7981 57.9547 46.7065 57.8168 46.6438C57.6789 46.581 57.5291 46.5486 57.3775 46.5486C57.226 46.5486 57.0762 46.581 56.9383 46.6438C56.8004 46.7065 56.6776 46.7981 56.5782 46.9123C56.3634 47.211 56.257 47.5738 56.2767 47.941C56.274 48.1194 56.3025 48.297 56.3608 48.4658C56.4143 48.6147 56.4952 48.7523 56.5992 48.8717C56.6967 48.9832 56.816 49.0737 56.9498 49.1376C57.0903 49.2031 57.2435 49.2365 57.3986 49.2355H58.4433L58.4363 47.927ZM58.4363 44.848C58.3407 44.8485 58.2459 44.8296 58.1579 44.7923C58.0699 44.755 57.9904 44.7001 57.9244 44.631C57.7866 44.491 57.7093 44.3025 57.7093 44.1062C57.7093 43.9099 57.7866 43.7214 57.9244 43.5814C57.9898 43.511 58.069 43.4548 58.1571 43.4163C58.2451 43.3778 58.3402 43.3577 58.4363 43.3574C58.5336 43.3568 58.63 43.3764 58.7194 43.4149C58.8087 43.4535 58.889 43.5102 58.9552 43.5814C59.0867 43.7246 59.1597 43.9119 59.1597 44.1062C59.1597 44.3005 59.0867 44.4878 58.9552 44.631C58.889 44.7023 58.8087 44.7589 58.7194 44.7975C58.63 44.8361 58.5336 44.8556 58.4363 44.8549" fill="white"/>
<path d="M32.8362 33.6162C32.6228 33.6165 32.4147 33.6825 32.2402 33.8051L32.1771 33.8541L32.0018 33.9871L31.8896 34.0501C31.7607 34.13 31.617 34.1835 31.4671 34.2074C31.3171 34.2313 31.1639 34.2252 31.0164 34.1894C30.8689 34.1535 30.73 34.0887 30.6078 33.9987C30.4857 33.9087 30.3827 33.7953 30.305 33.6652H30.1788C28.6676 33.6416 27.1886 33.2264 25.8868 32.4601C24.5851 31.6939 23.5053 30.603 22.7536 29.2945C22.0019 27.986 21.604 26.5049 21.599 24.9967C21.594 23.4884 21.9821 22.0047 22.7252 20.6914V20.6284C22.8514 20.4184 22.9847 20.2015 23.1319 19.9916L23.2301 19.8516L23.2932 19.7607L23.3563 19.6627L23.4124 19.5717L30.1717 9.56493L30.2629 9.43898L30.34 9.34101C30.4124 9.25997 30.4977 9.19141 30.5925 9.13808C30.7953 9.0215 31.0284 8.96789 31.2619 8.98409C31.4955 9.00029 31.7189 9.08557 31.9037 9.22904L32.0159 9.30602C32.1783 9.41396 32.3676 9.47467 32.5627 9.48136C32.7577 9.48805 32.9507 9.44045 33.1202 9.34389C33.2897 9.24734 33.4289 9.10562 33.5223 8.93461C33.6157 8.76359 33.6596 8.57002 33.649 8.37554C33.6384 8.18107 33.5739 7.99336 33.4625 7.83342C33.3512 7.67347 33.1974 7.5476 33.0185 7.46987C32.8396 7.39215 32.6425 7.36564 32.4493 7.39331C32.2561 7.42099 32.0745 7.50175 31.9247 7.62657L31.7284 7.8085C31.5461 8.00444 30.936 8.54327 30.4452 7.85049C30.3931 7.77897 30.355 7.69824 30.333 7.61257C30.3072 7.54599 30.2949 7.47496 30.2968 7.40358C30.2987 7.33221 30.3148 7.26192 30.3441 7.19681C30.3735 7.1317 30.4155 7.07307 30.4678 7.02431C30.52 6.97555 30.5815 6.93764 30.6485 6.91279H30.7117C30.9263 6.87127 31.1225 6.76358 31.2726 6.60489L31.3848 6.49293C31.6205 6.31359 31.9087 6.21647 32.2052 6.21647C32.5016 6.21647 32.7898 6.31359 33.0256 6.49293L33.1167 6.55591C33.2134 6.63731 33.3303 6.69108 33.4551 6.71154C33.58 6.73201 33.708 6.7184 33.8257 6.67215C33.9434 6.62591 34.0464 6.54875 34.1237 6.44886C34.201 6.34897 34.2498 6.23006 34.265 6.10474C34.2801 5.97941 34.261 5.85233 34.2096 5.73696C34.1583 5.6216 34.0766 5.52224 33.9733 5.44942C33.87 5.37661 33.7488 5.33303 33.6227 5.32332C33.4966 5.31361 33.3702 5.33814 33.2569 5.39428H33.1938L33.0746 5.47126C32.8397 5.6488 32.5492 5.73713 32.255 5.72047C31.9608 5.7038 31.6822 5.58321 31.4689 5.38029L31.3357 5.22634C31.1963 5.05207 31.0046 4.92699 30.7888 4.86945C30.6358 4.82845 30.5013 4.73696 30.407 4.60989C30.3128 4.48282 30.2645 4.32766 30.2699 4.16968V3.61685C30.2557 3.4944 30.2742 3.37037 30.3234 3.25732C30.3727 3.14427 30.451 3.04621 30.5504 2.97306L30.6626 2.91708C30.8363 2.84128 30.9863 2.72001 31.0967 2.5661C31.207 2.41219 31.2736 2.23137 31.2895 2.04278C31.3053 1.85418 31.2697 1.66482 31.1865 1.49475C31.1033 1.32468 30.9756 1.18023 30.8168 1.07668H30.7678C30.6079 0.955363 30.4785 0.798675 30.3897 0.618957C30.3009 0.43924 30.2551 0.241404 30.2559 0.0410156L28.1523 3.11302L18.9599 16.7306L18.8687 16.8706L18.7706 17.0105C18.5392 17.3394 18.3148 17.7103 18.1185 18.0322L18.0764 18.1092C16.887 20.2167 16.2653 22.5959 16.2718 25.0146C16.2783 27.4334 16.9128 29.8092 18.1134 31.9103C19.314 34.0114 21.0398 35.7662 23.1224 37.0033C25.205 38.2405 27.5734 38.9179 29.9965 38.9695H30.1928C30.4243 38.975 30.6511 38.903 30.8369 38.765C31.0228 38.6271 31.157 38.431 31.2183 38.2081C31.2796 37.9852 31.2644 37.7482 31.1751 37.5349C31.0858 37.3216 30.9276 37.1443 30.7257 37.0311H30.6836L30.4943 36.9121L30.4312 36.8631C30.3547 36.7996 30.2926 36.7206 30.2491 36.6313C30.2056 36.542 30.1816 36.4446 30.1788 36.3453C30.1735 36.2226 30.1877 36.0997 30.2208 35.9814L30.326 35.7505L30.4382 35.6105L30.6275 35.4496C30.8393 35.3114 31.09 35.245 31.3426 35.2601C31.5952 35.2752 31.8362 35.3711 32.0299 35.5336L32.1 35.5825C32.2339 35.6805 32.3892 35.7454 32.5531 35.7719C32.717 35.7985 32.8849 35.7859 33.043 35.7353C33.2011 35.6846 33.345 35.5973 33.4628 35.4805C33.5806 35.3637 33.669 35.2208 33.7209 35.0633C33.7727 34.9059 33.7864 34.7384 33.7609 34.5747C33.7354 34.4109 33.6714 34.2555 33.5742 34.1212C33.477 33.9868 33.3492 33.8774 33.2015 33.8018C33.0537 33.7262 32.8901 33.6865 32.724 33.6862" fill="white"/>
<path d="M32.023 4.464C32.1616 4.464 32.2972 4.42296 32.4125 4.34607C32.5278 4.26918 32.6177 4.15989 32.6708 4.03203C32.7238 3.90416 32.7377 3.76346 32.7107 3.62771C32.6836 3.49197 32.6168 3.36728 32.5188 3.26941C32.4207 3.17155 32.2958 3.1049 32.1597 3.0779C32.0237 3.0509 31.8827 3.06476 31.7546 3.11773C31.6265 3.17069 31.517 3.26038 31.4399 3.37545C31.3629 3.49053 31.3218 3.62583 31.3218 3.76423C31.3218 3.94982 31.3957 4.12781 31.5271 4.25904C31.6586 4.39028 31.837 4.464 32.023 4.464ZM34.7085 9.98522C34.4776 9.98519 34.2532 10.0615 34.0704 10.2022L33.9512 10.3141L33.7969 10.4541C33.6617 10.5957 33.4847 10.6904 33.2916 10.7244C33.0986 10.7584 32.8998 10.7299 32.7241 10.643L32.619 10.573C32.5071 10.4912 32.372 10.4471 32.2333 10.4471C32.1145 10.4331 31.9941 10.4498 31.8836 10.4954C31.773 10.541 31.676 10.614 31.6017 10.7076C31.5275 10.8012 31.4784 10.9122 31.4593 11.0301C31.4401 11.1479 31.4515 11.2687 31.4923 11.3809C31.5332 11.4931 31.6021 11.593 31.6925 11.6712C31.783 11.7493 31.8919 11.803 32.0091 11.8273C32.1262 11.8515 32.2476 11.8454 32.3617 11.8096C32.4758 11.7738 32.5789 11.7095 32.661 11.6227L32.8574 11.4617L32.9906 11.4128C33.1368 11.396 33.2849 11.4091 33.426 11.4512C33.567 11.4933 33.698 11.5635 33.811 11.6577L33.9582 11.7766L34.0353 11.8466C34.1689 11.9466 34.3244 12.0134 34.489 12.0415C34.6535 12.0696 34.8224 12.0582 34.9817 12.0083C35.1409 11.9583 35.286 11.8712 35.4049 11.7543C35.5238 11.6373 35.613 11.4937 35.6653 11.3355C35.7175 11.1772 35.7313 11.0089 35.7054 10.8443C35.6796 10.6797 35.6148 10.5236 35.5165 10.3889C35.4183 10.2542 35.2892 10.1448 35.1402 10.0698C34.9912 9.9947 34.8263 9.95613 34.6594 9.95724M39.8341 33.8055C39.7316 33.8041 39.6304 33.8282 39.5396 33.8755C39.4762 33.9129 39.4174 33.9575 39.3643 34.0085L39.2171 34.1274L39.0838 34.1904C38.9505 34.2363 38.8078 34.2488 38.6685 34.2268C38.5291 34.2048 38.3973 34.1491 38.2845 34.0645L38.2284 34.0295L38.1162 33.9245L38.0251 33.8405C37.8713 33.7134 37.6845 33.6326 37.4864 33.6075C37.2884 33.5824 37.0872 33.6141 36.9065 33.6988C36.7259 33.7836 36.5731 33.9179 36.4661 34.0862C36.359 34.2544 36.3022 34.4495 36.3022 34.6488C36.3022 34.848 36.359 35.0432 36.4661 35.2114C36.5731 35.3796 36.7259 35.514 36.9065 35.5987C37.0872 35.6835 37.2884 35.7152 37.4864 35.6901C37.6845 35.665 37.8713 35.5841 38.0251 35.457L38.1373 35.352L38.3476 35.1001L38.4177 35.0371L38.607 34.9112C38.6975 34.8586 38.7986 34.8269 38.903 34.8185C39.0073 34.81 39.1123 34.8249 39.2101 34.8622H39.2732L39.4134 34.9672C39.5313 35.0659 39.6802 35.1204 39.8341 35.1211C39.939 35.1536 40.0502 35.1611 40.1585 35.1429C40.2669 35.1247 40.3694 35.0813 40.4579 35.0163C40.5464 34.9512 40.6183 34.8664 40.6679 34.7685C40.7174 34.6706 40.7433 34.5625 40.7433 34.4528C40.7433 34.3432 40.7174 34.235 40.6679 34.1372C40.6183 34.0393 40.5464 33.9544 40.4579 33.8894C40.3694 33.8244 40.2669 33.781 40.1585 33.7628C40.0502 33.7446 39.939 33.752 39.8341 33.7846M40.942 30.9855C40.7941 30.9874 40.6482 31.0194 40.5132 31.0796C40.3781 31.1397 40.2568 31.2268 40.1567 31.3353C39.4555 32.0001 38.9927 31.7132 38.8665 31.6223C38.7504 31.5315 38.6072 31.4822 38.4598 31.4823C38.341 31.4683 38.2206 31.485 38.11 31.5306C37.9995 31.5762 37.9025 31.6493 37.8282 31.7428C37.7539 31.8364 37.7049 31.9474 37.6858 32.0653C37.6666 32.1831 37.678 32.3039 37.7188 32.4161C37.7596 32.5283 37.8286 32.6283 37.919 32.7064C38.0094 32.7845 38.1184 32.8382 38.2356 32.8625C38.3527 32.8867 38.4741 32.8806 38.5882 32.8448C38.7023 32.809 38.8053 32.7447 38.8875 32.6579L38.9927 32.5669C39.0742 32.4983 39.1688 32.4469 39.2708 32.4156C39.3727 32.3844 39.4799 32.374 39.586 32.3851C39.6921 32.3962 39.7948 32.4286 39.8881 32.4803C39.9813 32.532 40.0631 32.6019 40.1286 32.6859L40.2057 32.7769C40.3219 32.9089 40.4694 33.0096 40.6348 33.07C40.8001 33.1303 40.978 33.1482 41.1521 33.1221C41.3262 33.096 41.4909 33.0267 41.6312 32.9206C41.7715 32.8145 41.8829 32.6749 41.9551 32.5147C42.0273 32.3544 42.0581 32.1787 42.0446 32.0035C42.031 31.8283 41.9737 31.6594 41.8777 31.5121C41.7818 31.3647 41.6504 31.2438 41.4954 31.1604C41.3405 31.0769 41.1671 31.0336 40.991 31.0344M42.5477 29.0261C42.4157 29.0278 42.2869 29.0666 42.176 29.138L41.9657 29.264C41.8788 29.3016 41.7865 29.3252 41.6922 29.334C41.4999 29.3513 41.3063 29.3175 41.1313 29.236L40.9981 29.159L40.8929 29.0891C40.8015 29.0432 40.7007 29.0193 40.5984 29.0191C40.4935 28.9866 40.3823 28.9791 40.274 28.9973C40.1656 29.0155 40.0631 29.0589 39.9746 29.1239C39.8861 29.189 39.8142 29.2738 39.7646 29.3717C39.7151 29.4696 39.6892 29.5777 39.6892 29.6874C39.6892 29.797 39.7151 29.9052 39.7646 30.003C39.8142 30.1009 39.8861 30.1858 39.9746 30.2508C40.0631 30.3158 40.1656 30.3592 40.274 30.3774C40.3823 30.3956 40.4935 30.3882 40.5984 30.3557C40.6826 30.3551 40.7659 30.3385 40.8438 30.3067H40.8999L41.0191 30.2227L41.1523 30.1247C41.28 30.033 41.4333 29.9837 41.5906 29.9837C41.7478 29.9837 41.9011 30.033 42.0288 30.1247L42.134 30.2157C42.2177 30.2995 42.3213 30.3608 42.4352 30.3938C42.5491 30.4268 42.6695 30.4304 42.7852 30.4043C42.9008 30.3782 43.008 30.3233 43.0966 30.2447C43.1852 30.166 43.2524 30.0662 43.2919 29.9546C43.3313 29.843 43.3418 29.7233 43.3223 29.6065C43.3027 29.4898 43.2539 29.3799 43.1802 29.2872C43.1066 29.1944 43.0106 29.1218 42.9012 29.0762C42.7918 29.0305 42.6726 29.0133 42.5547 29.0261M37.5342 19.7891C37.6472 19.7891 37.7583 19.7602 37.8568 19.7051L38.011 19.5861C38.063 19.5291 38.1247 19.4817 38.1933 19.4462C38.3475 19.3712 38.5206 19.3438 38.6905 19.3675C38.8603 19.3912 39.0193 19.4649 39.147 19.5791L39.2732 19.6981L39.3433 19.7611L39.4274 19.824C39.5894 19.9327 39.7785 19.9943 39.9735 20.0018C40.1685 20.0093 40.3618 19.9626 40.5317 19.8667C40.7017 19.7709 40.8415 19.6298 40.9356 19.4591C41.0297 19.2885 41.0744 19.0951 41.0647 18.9005C41.0549 18.706 40.9911 18.518 40.8804 18.3576C40.7697 18.1971 40.6165 18.0706 40.4378 17.9922C40.2592 17.9137 40.0622 17.8864 39.8689 17.9133C39.6756 17.9403 39.4936 18.0203 39.3433 18.1446L39.196 18.2985L39.0628 18.4665L38.9366 18.5855C38.8368 18.6854 38.7091 18.7529 38.5702 18.7791C38.4313 18.8053 38.2877 18.7891 38.1583 18.7324L38.0391 18.6624L37.9409 18.5924C37.8552 18.5116 37.7504 18.4536 37.6363 18.4239C37.5222 18.3942 37.4024 18.3938 37.288 18.4225C37.1736 18.4513 37.0684 18.5084 36.982 18.5885C36.8956 18.6686 36.8309 18.7692 36.7938 18.8809C36.7567 18.9927 36.7484 19.1119 36.7697 19.2277C36.7911 19.3435 36.8413 19.452 36.9159 19.5432C36.9904 19.6345 37.0868 19.7055 37.1961 19.7497C37.3054 19.7938 37.4241 19.8098 37.5412 19.7961M38.6912 15.3385L38.579 15.2475C38.4218 15.1353 38.2366 15.0685 38.0438 15.0544C37.851 15.0403 37.658 15.0795 37.4861 15.1678C37.3142 15.256 37.17 15.3898 37.0693 15.5545C36.9686 15.7191 36.9153 15.9083 36.9153 16.1013C36.9153 16.2942 36.9686 16.4834 37.0693 16.648C37.17 16.8127 37.3142 16.9465 37.4861 17.0347C37.658 17.123 37.851 17.1622 38.0438 17.1481C38.2366 17.134 38.4218 17.0672 38.579 16.955L38.6491 16.906C38.7964 16.7382 38.9908 16.6185 39.2071 16.5623C39.4234 16.5062 39.6516 16.5162 39.8622 16.5911L40.0024 16.6751H40.0515C40.143 16.7459 40.2507 16.793 40.3649 16.8122C40.4791 16.8313 40.5963 16.822 40.7061 16.7849C40.8158 16.7478 40.9146 16.6842 40.9936 16.5997C41.0727 16.5152 41.1295 16.4125 41.1591 16.3007C41.1887 16.189 41.19 16.0716 41.1631 15.9592C41.1361 15.8468 41.0817 15.7428 41.0046 15.6565C40.9275 15.5702 40.8302 15.5043 40.7214 15.4647C40.6126 15.4251 40.4957 15.413 40.381 15.4295C40.2734 15.4296 40.1675 15.456 40.0725 15.5064L39.9393 15.5904C39.774 15.6872 39.5828 15.7304 39.3919 15.7141C39.201 15.6978 39.0199 15.6228 38.8735 15.4994L38.6912 15.3385ZM40.6124 25.0794L40.6615 25.0374C41.4538 24.4146 42.0148 24.5965 42.2532 24.7365L42.3794 24.8274C42.4904 24.905 42.6226 24.9465 42.758 24.9464C42.944 24.9464 43.1223 24.8727 43.2538 24.7414C43.3853 24.6102 43.4592 24.4322 43.4592 24.2466C43.4592 24.061 43.3853 23.883 43.2538 23.7518C43.1223 23.6206 42.944 23.5469 42.758 23.5469C42.6558 23.5471 42.5549 23.571 42.4635 23.6168H42.4004L42.2392 23.7008C42.0362 23.7833 41.8171 23.8186 41.5984 23.804C41.3797 23.7895 41.1672 23.7255 40.977 23.6168L40.7597 23.4699L40.6475 23.3719C40.4838 23.2305 40.2807 23.1426 40.0655 23.12H39.8131C39.5341 23.1348 39.2725 23.2597 39.0858 23.467C38.8991 23.6744 38.8025 23.9472 38.8174 24.2256C38.8323 24.504 38.9574 24.7651 39.1651 24.9515C39.3729 25.1378 39.6463 25.2342 39.9253 25.2193C40.0756 25.2185 40.2239 25.185 40.36 25.1213L40.6124 25.0794ZM36.5806 14.0859C36.6777 14.086 36.7735 14.0645 36.8611 14.0229H36.9032L37.1135 13.869H37.1556C37.2773 13.7886 37.4199 13.7458 37.5658 13.7458C37.7117 13.7458 37.8543 13.7886 37.976 13.869L38.1162 13.9809C38.2131 14.0688 38.3327 14.1279 38.4615 14.1514C38.5903 14.175 38.7232 14.162 38.845 14.1141C38.9668 14.0662 39.0727 13.9852 39.1508 13.8803C39.2288 13.7754 39.2759 13.6507 39.2867 13.5205C39.2974 13.3902 39.2714 13.2596 39.2115 13.1434C39.1517 13.0271 39.0605 12.9299 38.9481 12.8628C38.8358 12.7956 38.7069 12.7612 38.576 12.7634C38.445 12.7656 38.3174 12.8044 38.2074 12.8753L38.1302 12.9243L38.011 13.0012L37.9129 13.0432C37.6739 13.1362 37.4086 13.1362 37.1696 13.0432L36.9593 12.9313L36.8681 12.8753C36.7741 12.8101 36.6655 12.7689 36.5518 12.7553C36.4381 12.7417 36.3228 12.756 36.216 12.7971C36.1091 12.8382 36.014 12.9048 35.9389 12.991C35.8638 13.0773 35.811 13.1806 35.7851 13.2919C35.7593 13.4032 35.7611 13.5191 35.7905 13.6296C35.8198 13.74 35.8758 13.8416 35.9536 13.9255C36.0314 14.0093 36.1286 14.0729 36.2367 14.1106C36.3447 14.1483 36.4604 14.1591 36.5736 14.1419M38.2354 30.7685C38.4434 30.7685 38.6468 30.707 38.8197 30.5916C38.9927 30.4763 39.1275 30.3124 39.2071 30.1206C39.2867 29.9287 39.3076 29.7177 39.267 29.5141C39.2264 29.3105 39.1262 29.1234 38.9791 28.9766C38.832 28.8298 38.6446 28.7299 38.4406 28.6894C38.2366 28.6489 38.0251 28.6696 37.8329 28.7491C37.6407 28.8285 37.4765 28.9631 37.3609 29.1357C37.2453 29.3083 37.1836 29.5113 37.1836 29.7189C37.1836 29.9972 37.2945 30.2642 37.4917 30.4611C37.689 30.6579 37.9565 30.7685 38.2354 30.7685ZM40.2829 26.9897C40.2829 26.8513 40.2417 26.716 40.1647 26.601C40.0876 26.4859 39.9781 26.3962 39.85 26.3432C39.7219 26.2903 39.5809 26.2764 39.4449 26.3034C39.3089 26.3304 39.1839 26.3971 39.0859 26.4949C38.9878 26.5928 38.921 26.7175 38.894 26.8532C38.8669 26.989 38.8808 27.1297 38.9339 27.2575C38.9869 27.3854 39.0768 27.4947 39.1921 27.5716C39.3074 27.6485 39.443 27.6895 39.5817 27.6895C39.7676 27.6895 39.946 27.6158 40.0775 27.4846C40.209 27.3533 40.2829 27.1753 40.2829 26.9897ZM36.3422 33.0358C36.4809 33.0358 36.6165 32.9948 36.7318 32.9179C36.8471 32.841 36.937 32.7317 36.99 32.6038C37.0431 32.4759 37.057 32.3352 37.0299 32.1995C37.0029 32.0637 36.9361 31.9391 36.838 31.8412C36.74 31.7433 36.615 31.6767 36.479 31.6497C36.343 31.6227 36.202 31.6365 36.0739 31.6895C35.9458 31.7425 35.8363 31.8322 35.7592 31.9472C35.6822 32.0623 35.6411 32.1976 35.6411 32.336C35.6411 32.5216 35.7149 32.6996 35.8464 32.8308C35.9779 32.9621 36.1563 33.0358 36.3422 33.0358ZM39.0207 21.7064C39.0207 21.8448 39.0619 21.9801 39.1389 22.0952C39.216 22.2103 39.3255 22.3 39.4536 22.3529C39.5817 22.4059 39.7227 22.4198 39.8587 22.3928C39.9947 22.3658 40.1197 22.2991 40.2177 22.2013C40.3158 22.1034 40.3826 21.9787 40.4096 21.843C40.4367 21.7072 40.4228 21.5665 40.3697 21.4387C40.3167 21.3108 40.2268 21.2015 40.1115 21.1246C39.9962 21.0477 39.8606 21.0067 39.7219 21.0067C39.5359 21.0067 39.3576 21.0804 39.2261 21.2116C39.0946 21.3429 39.0207 21.5209 39.0207 21.7064ZM35.1222 35.331C35.2609 35.331 35.3964 35.29 35.5117 35.2131C35.627 35.1362 35.7169 35.0269 35.77 34.8991C35.8231 34.7712 35.8369 34.6305 35.8099 34.4947C35.7828 34.359 35.716 34.2343 35.618 34.1365C35.5199 34.0386 35.395 33.972 35.259 33.945C35.123 33.918 34.982 33.9318 34.8538 33.9848C34.7257 34.0377 34.6162 34.1274 34.5392 34.2425C34.4621 34.3576 34.421 34.4929 34.421 34.6313C34.421 34.8169 34.4949 34.9948 34.6264 35.1261C34.7579 35.2573 34.9362 35.331 35.1222 35.331ZM34.9679 16.1222C34.9679 16.2606 35.009 16.3959 35.0861 16.511C35.1631 16.6261 35.2726 16.7158 35.4008 16.7687C35.5289 16.8217 35.6699 16.8356 35.8059 16.8086C35.9419 16.7816 36.0668 16.7149 36.1649 16.6171C36.263 16.5192 36.3297 16.3945 36.3568 16.2588C36.3839 16.123 36.37 15.9823 36.3169 15.8544C36.2638 15.7266 36.174 15.6173 36.0586 15.5404C35.9433 15.4635 35.8078 15.4225 35.6691 15.4225C35.4831 15.4225 35.3048 15.4962 35.1733 15.6274C35.0418 15.7587 34.9679 15.9367 34.9679 16.1222ZM34.2667 14.4988C34.4748 14.4988 34.6781 14.4372 34.8511 14.3219C35.024 14.2065 35.1588 14.0426 35.2384 13.8508C35.318 13.659 35.3389 13.4479 35.2983 13.2443C35.2577 13.0407 35.1575 12.8537 35.0105 12.7069C34.8634 12.5601 34.6759 12.4601 34.4719 12.4196C34.2679 12.3791 34.0564 12.3999 33.8642 12.4793C33.6721 12.5588 33.5078 12.6933 33.3922 12.866C33.2766 13.0386 33.215 13.2415 33.215 13.4491C33.215 13.7275 33.3258 13.9945 33.523 14.1913C33.7203 14.3882 33.9878 14.4988 34.2667 14.4988ZM35.045 35.9189C34.837 35.9189 34.6337 35.9804 34.4607 36.0958C34.2877 36.2111 34.1529 36.375 34.0733 36.5668C33.9937 36.7586 33.9729 36.9697 34.0135 37.1733C34.0541 37.3769 34.1542 37.5639 34.3013 37.7107C34.4484 37.8575 34.6358 37.9575 34.8399 37.998C35.0439 38.0385 35.2554 38.0177 35.4475 37.9383C35.6397 37.8588 35.804 37.7243 35.9196 37.5517C36.0351 37.3791 36.0968 37.1761 36.0968 36.9685C36.0968 36.6901 35.986 36.4231 35.7888 36.2263C35.5915 36.0294 35.324 35.9189 35.045 35.9189ZM42.4846 22.7351C42.6926 22.7351 42.8959 22.6736 43.0689 22.5582C43.2419 22.4429 43.3767 22.2789 43.4563 22.0871C43.5359 21.8953 43.5567 21.6843 43.5161 21.4807C43.4755 21.2771 43.3754 21.09 43.2283 20.9432C43.0812 20.7964 42.8938 20.6965 42.6898 20.656C42.4857 20.6155 42.2743 20.6362 42.0821 20.7157C41.8899 20.7951 41.7256 20.9297 41.61 21.1023C41.4945 21.2749 41.4328 21.4778 41.4328 21.6854C41.4328 21.9638 41.5436 22.2308 41.7409 22.4277C41.9381 22.6245 42.2056 22.7351 42.4846 22.7351ZM42.6248 25.8141C42.4168 25.8141 42.2134 25.8757 42.0405 25.991C41.8675 26.1064 41.7327 26.2703 41.6531 26.4621C41.5735 26.6539 41.5527 26.8649 41.5932 27.0686C41.6338 27.2722 41.734 27.4592 41.8811 27.606C42.0282 27.7528 42.2156 27.8528 42.4196 27.8933C42.6236 27.9338 42.8351 27.913 43.0273 27.8335C43.2195 27.7541 43.3837 27.6196 43.4993 27.4469C43.6149 27.2743 43.6766 27.0714 43.6766 26.8638C43.6766 26.5854 43.5658 26.3184 43.3685 26.1216C43.1713 25.9247 42.9037 25.8141 42.6248 25.8141ZM42.1059 19.4392C42.2446 19.4392 42.3802 19.3981 42.4955 19.3212C42.6108 19.2444 42.7007 19.1351 42.7537 19.0072C42.8068 18.8793 42.8207 18.7386 42.7936 18.6029C42.7666 18.4671 42.6998 18.3424 42.6017 18.2446C42.5037 18.1467 42.3787 18.0801 42.2427 18.0531C42.1067 18.0261 41.9657 18.0399 41.8376 18.0929C41.7095 18.1459 41.6 18.2356 41.5229 18.3506C41.4459 18.4657 41.4048 18.601 41.4048 18.7394C41.4048 18.925 41.4786 19.103 41.6101 19.2342C41.7416 19.3654 41.92 19.4392 42.1059 19.4392ZM32.6751 36.4927C32.5364 36.4927 32.4008 36.5337 32.2855 36.6106C32.1702 36.6875 32.0803 36.7968 32.0272 36.9247C31.9742 37.0525 31.9603 37.1932 31.9874 37.329C32.0144 37.4647 32.0812 37.5894 32.1793 37.6873C32.2773 37.7851 32.4022 37.8518 32.5383 37.8788C32.6743 37.9058 32.8153 37.8919 32.9434 37.839C33.0715 37.786 33.181 37.6963 33.2581 37.5812C33.3351 37.4661 33.3762 37.3309 33.3762 37.1925C33.3762 37.0069 33.3024 36.8289 33.1709 36.6976C33.0394 36.5664 32.861 36.4927 32.6751 36.4927ZM36.9452 11.7557C37.0839 11.7557 37.2195 11.7146 37.3348 11.6377C37.4501 11.5608 37.54 11.4515 37.593 11.3237C37.6461 11.1958 37.66 11.0551 37.633 10.9194C37.6059 10.7836 37.5391 10.6589 37.4411 10.5611C37.343 10.4632 37.2181 10.3965 37.082 10.3695C36.946 10.3425 36.805 10.3564 36.6769 10.4094C36.5488 10.4623 36.4393 10.552 36.3622 10.6671C36.2852 10.7822 36.2441 10.9175 36.2441 11.0559C36.2441 11.2415 36.3179 11.4195 36.4494 11.5507C36.5809 11.6819 36.7593 11.7557 36.9452 11.7557ZM35.0941 9.08951C34.9555 9.08951 34.8199 9.04847 34.7046 8.97158C34.5893 8.89468 34.4994 8.7854 34.4463 8.65753C34.3932 8.52967 34.3794 8.38897 34.4064 8.25322C34.4335 8.11748 34.5003 7.99279 34.5983 7.89492C34.6964 7.79706 34.8213 7.73041 34.9573 7.70341C35.0933 7.67641 35.2343 7.69027 35.3625 7.74323C35.4906 7.7962 35.6001 7.88588 35.6771 8.00096C35.7542 8.11604 35.7953 8.25134 35.7953 8.38974C35.7953 8.57533 35.7214 8.75332 35.5899 8.88455C35.4584 9.01579 35.2801 9.08951 35.0941 9.08951Z" fill="white"/>
</g>
<defs>
<clipPath id="clip0_807_20502">
<rect width="60" height="62" fill="white"/>
</clipPath>
</defs>
</svg>
