<svg width="18" height="18" viewBox="0 0 18 18" fill="none" xmlns="http://www.w3.org/2000/svg">
<g style="mix-blend-mode:overlay">
<path d="M6.53761 15.3657C6.5372 15.4099 6.54554 15.4537 6.56216 15.4946C6.57878 15.5356 6.60335 15.5728 6.63444 15.6042C6.66553 15.6356 6.70253 15.6605 6.7433 15.6775C6.78407 15.6945 6.82781 15.7032 6.87199 15.7032H7.59074C7.54656 15.7032 7.50282 15.6945 7.46205 15.6775C7.42128 15.6605 7.38428 15.6356 7.35319 15.6042C7.3221 15.5728 7.29753 15.5356 7.28091 15.4946C7.26429 15.4537 7.25595 15.4099 7.25636 15.3657V13.472C7.25595 13.4278 7.26429 13.384 7.28091 13.343C7.29753 13.3021 7.3221 13.2649 7.35319 13.2335C7.38428 13.2021 7.42128 13.1772 7.46205 13.1602C7.50282 13.1432 7.54656 13.1345 7.59074 13.1345H6.87199C6.82781 13.1345 6.78407 13.1432 6.7433 13.1602C6.70253 13.1772 6.66553 13.2021 6.63444 13.2335C6.60335 13.2649 6.57878 13.3021 6.56216 13.343C6.54554 13.384 6.5372 13.4278 6.53761 13.472V15.3657Z" fill="white"/>
<path d="M7.59074 9.73755H6.87199C6.82781 9.73755 6.78407 9.7463 6.7433 9.7633C6.70253 9.7803 6.66553 9.80521 6.63444 9.83659C6.60335 9.86797 6.57878 9.9052 6.56216 9.94613C6.54554 9.98706 6.5372 10.0309 6.53761 10.075V11.9688C6.5372 12.013 6.54554 12.0568 6.56216 12.0977C6.57878 12.1386 6.60335 12.1759 6.63444 12.2073C6.66553 12.2386 6.70253 12.2636 6.7433 12.2806C6.78407 12.2975 6.82781 12.3063 6.87199 12.3063H7.59074C7.54656 12.3063 7.50282 12.2975 7.46205 12.2806C7.42128 12.2636 7.38428 12.2386 7.35319 12.2073C7.3221 12.1759 7.29753 12.1386 7.28091 12.0977C7.26429 12.0568 7.25595 12.013 7.25636 11.9688V10.075C7.25595 10.0309 7.26429 9.98706 7.28091 9.94613C7.29753 9.9052 7.3221 9.86797 7.35319 9.83659C7.38428 9.80521 7.42128 9.7803 7.46205 9.7633C7.50282 9.7463 7.54656 9.73755 7.59074 9.73755Z" fill="white"/>
<path d="M7.67817 4.27194C7.34106 3.82569 7.0812 3.32605 6.90942 2.79381C6.73143 2.25007 6.64072 1.68157 6.64067 1.10944C6.64704 1.01525 6.6348 0.920735 6.60464 0.831283C6.57448 0.741832 6.52699 0.659198 6.46489 0.588101C6.40279 0.517005 6.32729 0.458837 6.24271 0.416922C6.15812 0.375006 6.06611 0.350163 5.97192 0.343811H5.25317C5.44308 0.357443 5.61992 0.44555 5.74517 0.588947C5.87042 0.732344 5.93395 0.919419 5.92192 1.10944C5.92244 1.68153 6.01314 2.24996 6.19067 2.79381C6.36326 3.32475 6.62307 3.82323 6.95942 4.26881C7.62429 5.16576 7.97766 6.2555 7.96567 7.37194V9.73756H8.68442V7.37194C8.69573 6.25657 8.34239 5.16803 7.67817 4.27194Z" fill="white"/>
<path d="M8.69385 12.3032H7.9751V13.1344H8.69385V12.3032Z" fill="white"/>
<path d="M8.69385 15.7032H7.9751V17.2188H8.69385V15.7032Z" fill="white"/>
<path d="M16.4032 8.39691C15.7407 7.96566 14.8407 7.22504 14.8407 6.37816V2.96879C14.8423 2.66352 14.759 2.36383 14.6001 2.10316L13.8844 0.975037C13.7767 0.788372 13.6226 0.63273 13.437 0.523219C13.2513 0.413709 13.0406 0.354051 12.8251 0.350037H11.9188C12.1343 0.354051 12.3451 0.413709 12.5307 0.523219C12.7163 0.63273 12.8705 0.788372 12.9782 0.975037L13.6844 2.10316C13.8433 2.36383 13.9266 2.66352 13.9251 2.96879V6.37816C13.9251 7.22504 14.8344 7.96879 15.4876 8.39691C15.6952 8.53239 15.8656 8.71782 15.9829 8.93621C16.1003 9.15461 16.161 9.39897 16.1594 9.64691V16.4282C16.1603 16.6365 16.0785 16.8366 15.9321 16.9848C15.7857 17.133 15.5865 17.2171 15.3782 17.2188H16.2844C16.3877 17.2184 16.4899 17.1976 16.5851 17.1576C16.6803 17.1176 16.7667 17.0592 16.8393 16.9857C16.9119 16.9123 16.9692 16.8252 17.0081 16.7295C17.0469 16.6338 17.0665 16.5314 17.0657 16.4282V9.64066C17.0672 9.39464 17.0075 9.1521 16.8918 8.93496C16.7762 8.71781 16.6082 8.5329 16.4032 8.39691Z" fill="white"/>
<path d="M6.64075 1.13131C7.99727 1.49248 9.42562 1.48493 10.7782 1.10944L6.64075 1.13131Z" fill="white"/>
<path d="M6.61885 10.3625V11.2969H0.350098V11.9375H7.25635V10.3625H6.61885Z" fill="white"/>
<path d="M16.6251 10.3625V11.4875H10.172V11.9375H17.0751V10.3625H16.6251Z" fill="white"/>
<path d="M6.72197 13.6313V14.6688H0.350098V15.2032H7.25635V13.6313H6.72197Z" fill="white"/>
<path d="M16.5907 13.6313V14.7188H10.172V15.2032H17.0751V13.6313H16.5907Z" fill="white"/>
<path d="M9.84067 9.73755H8.52192C8.64176 9.73755 8.76041 9.76115 8.87112 9.80701C8.98183 9.85287 9.08243 9.92008 9.16716 10.0048C9.25189 10.0895 9.31911 10.1901 9.36496 10.3008C9.41082 10.4116 9.43442 10.5302 9.43442 10.65V11.3875C9.43442 11.6304 9.33796 11.8633 9.16624 12.035C8.99453 12.2067 8.76164 12.3032 8.5188 12.3032H9.84067C9.88485 12.3032 9.92859 12.2944 9.96936 12.2774C10.0101 12.2604 10.0471 12.2355 10.0782 12.2041C10.1093 12.1728 10.1339 12.1355 10.1505 12.0946C10.1671 12.0537 10.1755 12.0098 10.175 11.9657V10.0907C10.1767 10.0454 10.1693 10.0003 10.1534 9.95792C10.1374 9.91556 10.1131 9.8768 10.082 9.84392C10.0509 9.81104 10.0135 9.7847 9.97204 9.76643C9.93061 9.74817 9.88595 9.73835 9.84067 9.73755Z" fill="white"/>
<path d="M9.84077 13.1376H8.4814C8.60582 13.1355 8.72941 13.1582 8.84496 13.2044C8.96052 13.2506 9.06572 13.3193 9.15443 13.4066C9.24315 13.4938 9.31361 13.5979 9.36169 13.7127C9.40978 13.8274 9.43454 13.9506 9.43452 14.0751V14.7313C9.43452 14.9849 9.33377 15.2282 9.15444 15.4075C8.97511 15.5868 8.73188 15.6876 8.47827 15.6876H9.84077C9.88495 15.6876 9.92868 15.6788 9.96946 15.6618C10.0102 15.6448 10.0472 15.6199 10.0783 15.5885C10.1094 15.5572 10.134 15.5199 10.1506 15.479C10.1672 15.4381 10.1756 15.3943 10.1751 15.3501V13.4751C10.1743 13.3864 10.139 13.3014 10.0765 13.2384C10.0141 13.1754 9.92949 13.1392 9.84077 13.1376Z" fill="white"/>
</g>
<path d="M7.25628 10.075V11.9688C7.25587 12.013 7.26422 12.0568 7.28083 12.0977C7.29745 12.1386 7.32202 12.1759 7.35311 12.2072C7.3842 12.2386 7.4212 12.2635 7.46197 12.2805C7.50275 12.2975 7.54648 12.3063 7.59066 12.3063H8.69378V13.1375H7.59066C7.54648 13.1375 7.50275 13.1463 7.46197 13.1633C7.4212 13.1803 7.3842 13.2052 7.35311 13.2366C7.32202 13.268 7.29745 13.3052 7.28083 13.3461C7.26422 13.387 7.25587 13.4309 7.25628 13.475V15.3688C7.25587 15.413 7.26422 15.4568 7.28083 15.4977C7.29745 15.5386 7.32202 15.5759 7.35311 15.6072C7.3842 15.6386 7.4212 15.6635 7.46197 15.6805C7.50275 15.6975 7.54648 15.7063 7.59066 15.7063H8.69378V17.2219H1.13128C1.02801 17.2215 0.92584 17.2007 0.830627 17.1607C0.735414 17.1207 0.649036 17.0623 0.576449 16.9889C0.503862 16.9154 0.446496 16.8283 0.407641 16.7327C0.368787 16.637 0.34921 16.5346 0.350034 16.4313V9.64379C0.347834 9.39608 0.407922 9.1518 0.524776 8.93338C0.641629 8.71496 0.811502 8.52942 1.01878 8.39379C1.67816 7.96566 2.60003 7.21879 2.60003 6.36879V2.96879C2.59846 2.66352 2.68177 2.36383 2.84066 2.10316L3.54378 0.975037C3.65151 0.788372 3.80566 0.63273 3.99128 0.523219C4.1769 0.413709 4.38768 0.354051 4.60316 0.350037H5.97503C6.16494 0.363668 6.34178 0.451775 6.46703 0.595173C6.59228 0.73857 6.65581 0.925645 6.64378 1.11566C6.64496 1.68566 6.73565 2.25193 6.91253 2.79379C7.08512 3.32472 7.34492 3.82321 7.68128 4.26879C8.34884 5.16371 8.7055 6.25234 8.69691 7.36879V9.73441H7.59378C7.54896 9.73355 7.50443 9.74179 7.46288 9.75864C7.42134 9.7755 7.38365 9.80061 7.35209 9.83245C7.32054 9.8643 7.29578 9.90222 7.27931 9.94392C7.26284 9.98562 7.25501 10.0302 7.25628 10.075Z" stroke="#010101" stroke-width="0.7" stroke-miterlimit="10"/>
<path d="M17.075 9.64066V16.4282C17.0759 16.6365 16.9941 16.8366 16.8477 16.9848C16.7013 17.133 16.5021 17.2171 16.2938 17.2188H8.7344V15.7032H9.84066C9.88483 15.7032 9.92857 15.6944 9.96934 15.6774C10.0101 15.6604 10.0471 15.6355 10.0782 15.6041C10.1093 15.5727 10.1339 15.5355 10.1505 15.4946C10.1671 15.4537 10.1754 15.4098 10.175 15.3657V13.4907C10.1767 13.4454 10.1693 13.4003 10.1534 13.3579C10.1374 13.3155 10.1131 13.2768 10.082 13.2439C10.0508 13.211 10.0135 13.1847 9.97202 13.1664C9.93059 13.1482 9.88593 13.1383 9.84066 13.1375H8.7344V12.3063H9.84066C9.88483 12.3063 9.92857 12.2975 9.96934 12.2805C10.0101 12.2635 10.0471 12.2386 10.0782 12.2072C10.1093 12.1759 10.1339 12.1386 10.1505 12.0977C10.1671 12.0568 10.1754 12.013 10.175 11.9688V10.0938C10.1767 10.0485 10.1693 10.0034 10.1534 9.96104C10.1374 9.91867 10.1131 9.87991 10.082 9.84703C10.0508 9.81415 10.0135 9.78781 9.97202 9.76954C9.93059 9.75128 9.88593 9.74146 9.84066 9.74066H8.7344V7.37504C8.72581 6.25859 9.08247 5.16996 9.75003 4.27504C10.0864 3.82718 10.3462 3.32664 10.5188 2.79379C10.693 2.25154 10.7805 1.6852 10.7782 1.11566C10.7662 0.925139 10.8301 0.73762 10.956 0.594134C11.0819 0.450649 11.2596 0.362881 11.45 0.350037H12.8188C13.0343 0.354051 13.245 0.413709 13.4307 0.523219C13.6163 0.63273 13.7704 0.788372 13.8782 0.975037L14.5844 2.10316C14.7488 2.3622 14.8375 2.66201 14.8407 2.96879V6.37816C14.8407 7.22504 15.75 7.96879 16.4032 8.39691C16.6099 8.53181 16.7797 8.71625 16.897 8.93347C17.0144 9.15068 17.0756 9.39378 17.075 9.64066Z" stroke="#010101" stroke-width="0.7" stroke-miterlimit="10"/>
<path d="M6.64062 1.13131C7.99715 1.49248 9.4255 1.48493 10.7781 1.10944" stroke="#010101" stroke-width="0.7" stroke-miterlimit="10"/>
<path d="M7.25623 10.3625H0.349976V11.9344H7.25623V10.3625Z" stroke="#010101" stroke-width="0.7" stroke-miterlimit="10"/>
<path d="M17.075 10.3625H10.1719V11.9344H17.075V10.3625Z" stroke="#010101" stroke-width="0.7" stroke-miterlimit="10"/>
<path d="M7.25623 13.6313H0.349976V15.2032H7.25623V13.6313Z" stroke="#010101" stroke-width="0.7" stroke-miterlimit="10"/>
<path d="M17.075 13.6313H10.1719V15.2032H17.075V13.6313Z" stroke="#010101" stroke-width="0.7" stroke-miterlimit="10"/>
<path d="M10.1719 10.0782V11.9532C10.174 11.9981 10.167 12.043 10.1513 12.0852C10.1357 12.1274 10.1116 12.166 10.0807 12.1987C10.0498 12.2313 10.0126 12.2574 9.97132 12.2754C9.93006 12.2934 9.88561 12.3028 9.84062 12.3032H7.59062C7.54644 12.3032 7.5027 12.2944 7.46193 12.2774C7.42116 12.2604 7.38416 12.2355 7.35306 12.2041C7.32197 12.1728 7.29741 12.1355 7.28079 12.0946C7.26417 12.0537 7.25583 12.0099 7.25624 11.9657V10.0907C7.25583 10.0464 7.26415 10.0024 7.28073 9.96129C7.29731 9.92019 7.32183 9.88275 7.35288 9.85112C7.38393 9.81949 7.4209 9.79428 7.4617 9.77694C7.50249 9.7596 7.54629 9.75047 7.59062 9.75006H9.84062C9.92744 9.75164 10.0103 9.78662 10.072 9.84773C10.1337 9.90884 10.1695 9.99138 10.1719 10.0782Z" stroke="#010101" stroke-width="0.7" stroke-miterlimit="10"/>
<path d="M10.1719 13.4781V15.3531C10.174 15.3981 10.167 15.443 10.1513 15.4852C10.1357 15.5274 10.1116 15.566 10.0807 15.5986C10.0498 15.6313 10.0126 15.6574 9.97132 15.6754C9.93006 15.6933 9.88561 15.7028 9.84062 15.7032H7.59062C7.54644 15.7032 7.5027 15.6944 7.46193 15.6774C7.42116 15.6604 7.38416 15.6355 7.35306 15.6041C7.32197 15.5727 7.29741 15.5355 7.28079 15.4946C7.26417 15.4536 7.25583 15.4098 7.25624 15.3656V13.4906C7.25583 13.4463 7.26415 13.4024 7.28073 13.3613C7.29731 13.3201 7.32183 13.2827 7.35288 13.2511C7.38393 13.2195 7.4209 13.1942 7.4617 13.1769C7.50249 13.1596 7.54629 13.1504 7.59062 13.15H9.84062C9.92744 13.1516 10.0103 13.1866 10.072 13.2477C10.1337 13.3088 10.1695 13.3913 10.1719 13.4781Z" stroke="#010101" stroke-width="0.7" stroke-miterlimit="10"/>
<path d="M12.7938 8.48131H12.3562C12.2618 8.48131 12.1712 8.44378 12.1043 8.37697C12.0375 8.31016 12 8.21954 12 8.12506V6.13756C12 6.04308 12.0375 5.95246 12.1043 5.88565C12.1712 5.81884 12.2618 5.78131 12.3562 5.78131H12.7938C12.8882 5.78131 12.9788 5.81884 13.0457 5.88565C13.1125 5.95246 13.15 6.04308 13.15 6.13756V8.12506C13.15 8.21954 13.1125 8.31016 13.0457 8.37697C12.9788 8.44378 12.8882 8.48131 12.7938 8.48131Z" stroke="#010101" stroke-width="0.7" stroke-miterlimit="10" stroke-linecap="round"/>
<path d="M5.11565 8.48131H4.67815C4.58367 8.48131 4.49305 8.44378 4.42624 8.37697C4.35943 8.31016 4.3219 8.21954 4.3219 8.12506V6.13756C4.3219 6.04308 4.35943 5.95246 4.42624 5.88565C4.49305 5.81884 4.58367 5.78131 4.67815 5.78131H5.11565C5.20905 5.78295 5.29806 5.82121 5.36353 5.88784C5.42899 5.95447 5.46566 6.04415 5.46565 6.13756V8.12506C5.46566 8.21847 5.42899 8.30815 5.36353 8.37478C5.29806 8.44142 5.20905 8.47967 5.11565 8.48131Z" stroke="#010101" stroke-width="0.7" stroke-miterlimit="10" stroke-linecap="round"/>
</svg>
