<svg width="16" height="16" viewBox="0 0 16 16" fill="none" xmlns="http://www.w3.org/2000/svg">
<path d="M2.3615 10.726C2.51136 10.8428 2.72295 10.8533 2.88228 10.7493C3.05937 10.6337 3.1329 10.3997 3.05038 10.2043C2.98447 10.0397 2.81817 9.93062 2.64191 9.9283C2.44534 9.92574 2.26842 10.0586 2.21063 10.2453C2.15712 10.4182 2.21873 10.6148 2.3615 10.726Z" fill="black"/>
<path d="M2.36162 6.05099C2.51148 6.16778 2.72307 6.17821 2.8824 6.07423C3.05949 5.95869 3.13302 5.72464 3.0505 5.52925C2.98459 5.36468 2.81829 5.25558 2.64203 5.25325C2.44546 5.25069 2.26855 5.38357 2.21075 5.57025C2.15724 5.74311 2.21885 5.93974 2.36162 6.05099Z" fill="black"/>
<path d="M1.70195 8.38852C1.85181 8.50531 2.0634 8.51573 2.22274 8.41176C2.39983 8.29622 2.47336 8.06216 2.39083 7.86678C2.32493 7.7022 2.15862 7.5931 1.98236 7.59078C1.78579 7.58821 1.60888 7.72109 1.55108 7.90777C1.49757 8.08063 1.55918 8.27727 1.70195 8.38852Z" fill="black"/>
<path d="M12.3333 12.6666H10.3333C10.2449 12.6666 10.1601 12.6315 10.0976 12.569C10.0351 12.5065 9.99996 12.4217 9.99996 12.3333V11.4156C9.95344 11.3969 9.90721 11.3775 9.86129 11.3573L9.21196 12.007C9.14945 12.0695 9.06468 12.1046 8.97629 12.1046C8.88791 12.1046 8.80314 12.0695 8.74063 12.007L7.32629 10.5926C7.2638 10.5301 7.2287 10.4454 7.2287 10.357C7.2287 10.2686 7.2638 10.1838 7.32629 10.1213L7.97596 9.47198C7.95564 9.42618 7.9363 9.37995 7.91796 9.33331H6.99996C6.91155 9.33331 6.82677 9.2982 6.76426 9.23568C6.70174 9.17317 6.66663 9.08839 6.66663 8.99998V6.99998C6.66663 6.91157 6.70174 6.82679 6.76426 6.76428C6.82677 6.70177 6.91155 6.66665 6.99996 6.66665H7.91796C7.93629 6.62031 7.95529 6.57431 7.97596 6.52798L7.32629 5.87865C7.2638 5.81614 7.2287 5.73137 7.2287 5.64298C7.2287 5.55459 7.2638 5.46982 7.32629 5.40731L8.74063 3.99298C8.80314 3.93049 8.88791 3.89538 8.97629 3.89538C9.06468 3.89538 9.14945 3.93049 9.21196 3.99298L9.86129 4.64265C9.90763 4.62231 9.95363 4.60298 9.99996 4.58431V3.66665C9.99996 3.57824 10.0351 3.49346 10.0976 3.43094C10.1601 3.36843 10.2449 3.33331 10.3333 3.33331H12.3333C12.4217 3.33331 12.5065 3.36843 12.569 3.43094C12.6315 3.49346 12.6666 3.57824 12.6666 3.66665V4.58431C12.713 4.60298 12.759 4.62231 12.8053 4.64265L13.4546 3.99298C13.5171 3.93049 13.6019 3.89538 13.6903 3.89538C13.7787 3.89538 13.8635 3.93049 13.926 3.99298L15.3403 5.40731C15.4028 5.46982 15.4379 5.55459 15.4379 5.64298C15.4379 5.73137 15.4028 5.81614 15.3403 5.87865L14.6906 6.52798C14.7113 6.57431 14.7303 6.62031 14.7486 6.66665H15.6666C15.755 6.66665 15.8398 6.70177 15.9023 6.76428C15.9648 6.82679 16 6.91157 16 6.99998V8.99998C16 9.08839 15.9648 9.17317 15.9023 9.23568C15.8398 9.2982 15.755 9.33331 15.6666 9.33331H14.7486C14.7303 9.37965 14.7113 9.42565 14.6906 9.47198L15.3403 10.1213C15.4028 10.1838 15.4379 10.2686 15.4379 10.357C15.4379 10.4454 15.4028 10.5301 15.3403 10.5926L13.926 12.007C13.8635 12.0695 13.7787 12.1046 13.6903 12.1046C13.6019 12.1046 13.5171 12.0695 13.4546 12.007L12.8053 11.3573C12.759 11.3776 12.713 11.397 12.6666 11.4156V12.3333C12.6666 12.4217 12.6315 12.5065 12.569 12.569C12.5065 12.6315 12.4217 12.6666 12.3333 12.6666ZM10.6666 12H12V11.1803C12 11.1094 12.0226 11.0403 12.0645 10.9831C12.1065 10.9259 12.1656 10.8836 12.2333 10.8623C12.4011 10.809 12.5638 10.741 12.7196 10.659C12.7825 10.6261 12.8543 10.6142 12.9244 10.6249C12.9945 10.6356 13.0594 10.6685 13.1096 10.7186L13.6903 11.3L14.6333 10.357L14.0523 9.77598C14.0021 9.72579 13.9693 9.6609 13.9586 9.59076C13.9478 9.52061 13.9598 9.44887 13.9926 9.38598C14.0744 9.2302 14.1424 9.06758 14.196 8.89998C14.2172 8.83231 14.2596 8.7732 14.3167 8.73123C14.3739 8.68927 14.443 8.66664 14.514 8.66665H15.3333V7.33331H14.5136C14.4427 7.33332 14.3736 7.31069 14.3164 7.26873C14.2592 7.22676 14.2169 7.16765 14.1956 7.09998C14.1421 6.93238 14.0741 6.76976 13.9923 6.61398C13.9594 6.55109 13.9475 6.47935 13.9582 6.4092C13.969 6.33906 14.0018 6.27417 14.052 6.22398L14.6333 5.64298L13.6903 4.69998L13.1093 5.28098C13.0591 5.33114 12.9942 5.36398 12.9241 5.37471C12.8539 5.38544 12.7822 5.37351 12.7193 5.34065C12.5635 5.25866 12.4008 5.19061 12.233 5.13731C12.1653 5.11603 12.1062 5.07372 12.0642 5.01653C12.0222 4.95934 11.9996 4.89025 11.9996 4.81931V3.99998H10.6666V4.81965C10.6666 4.89058 10.644 4.95967 10.602 5.01686C10.5601 5.07405 10.501 5.11637 10.4333 5.13765C10.2655 5.19095 10.1028 5.25899 9.94696 5.34098C9.88407 5.37384 9.81233 5.38577 9.74218 5.37504C9.67204 5.36431 9.60715 5.33148 9.55696 5.28131L8.97629 4.69998L8.03329 5.64298L8.61429 6.22398C8.66446 6.27417 8.69729 6.33906 8.70802 6.4092C8.71875 6.47935 8.70682 6.55109 8.67396 6.61398C8.59218 6.76976 8.52415 6.93238 8.47063 7.09998C8.44935 7.16765 8.40703 7.22676 8.34984 7.26873C8.29265 7.31069 8.22356 7.33332 8.15263 7.33331H7.33329V8.66665H8.15296C8.2239 8.66664 8.29298 8.68927 8.35017 8.73123C8.40737 8.7732 8.44968 8.83231 8.47096 8.89998C8.52448 9.06758 8.59252 9.2302 8.67429 9.38598C8.70715 9.44887 8.71909 9.52061 8.70836 9.59076C8.69762 9.6609 8.66479 9.72579 8.61463 9.77598L8.03329 10.357L8.97629 11.3L9.55729 10.719C9.60748 10.6688 9.67237 10.636 9.74252 10.6253C9.81266 10.6145 9.8844 10.6265 9.94729 10.6593C10.1031 10.7413 10.2658 10.8093 10.4336 10.8626C10.5013 10.8839 10.5604 10.9262 10.6024 10.9834C10.6443 11.0406 10.667 11.1097 10.667 11.1806L10.6666 12Z" fill="black"/>
<path d="M11.3333 9.66665C11.0037 9.66665 10.6814 9.5689 10.4073 9.38576C10.1333 9.20263 9.91964 8.94233 9.79349 8.63779C9.66735 8.33324 9.63434 7.99813 9.69865 7.67483C9.76296 7.35153 9.92169 7.05456 10.1548 6.82147C10.3879 6.58838 10.6848 6.42965 11.0081 6.36534C11.3314 6.30103 11.6666 6.33404 11.9711 6.46018C12.2756 6.58633 12.5359 6.79995 12.7191 7.07403C12.9022 7.34811 13 7.67034 13 7.99998C12.9994 8.44185 12.8237 8.86546 12.5112 9.17791C12.1988 9.49035 11.7752 9.66612 11.3333 9.66665ZM11.3333 6.99998C11.1355 6.99998 10.9422 7.05863 10.7777 7.16851C10.6133 7.27839 10.4851 7.43457 10.4094 7.6173C10.3337 7.80002 10.3139 8.00109 10.3525 8.19507C10.3911 8.38905 10.4863 8.56723 10.6262 8.70709C10.766 8.84694 10.9442 8.94218 11.1382 8.98077C11.3322 9.01935 11.5333 8.99955 11.716 8.92386C11.8987 8.84817 12.0549 8.72 12.1648 8.55555C12.2746 8.3911 12.3333 8.19776 12.3333 7.99998C12.3333 7.73476 12.2279 7.48041 12.0404 7.29287C11.8529 7.10534 11.5985 6.99998 11.3333 6.99998Z" fill="black"/>
<path d="M10.3333 16H1.66667C1.2248 15.9995 0.801186 15.8237 0.48874 15.5113C0.176294 15.1988 0.000529286 14.7752 0 14.3333L0 3C1.88791e-05 2.9116 0.0351502 2.82683 0.0976667 2.76433L2.76433 0.0976667C2.82683 0.0351502 2.9116 1.88791e-05 3 0H10.3333C10.7752 0.000529286 11.1988 0.176294 11.5113 0.48874C11.8237 0.801186 11.9995 1.2248 12 1.66667V2.66667H11.3333V1.66667C11.3333 1.40145 11.228 1.1471 11.0404 0.95956C10.8529 0.772024 10.5986 0.666667 10.3333 0.666667H3.138L0.666667 3.138V14.3333C0.666667 14.5986 0.772024 14.8529 0.95956 15.0404C1.1471 15.228 1.40145 15.3333 1.66667 15.3333H10.3333C10.5986 15.3333 10.8529 15.228 11.0404 15.0404C11.228 14.8529 11.3333 14.5986 11.3333 14.3333V13.3333H12V14.3333C11.9995 14.7752 11.8237 15.1988 11.5113 15.5113C11.1988 15.8237 10.7752 15.9995 10.3333 16Z" fill="black"/>
<path d="M2.33337 3.33331H1.66671V2.66665H2.33337C2.42178 2.66665 2.50656 2.63153 2.56908 2.56902C2.63159 2.5065 2.66671 2.42172 2.66671 2.33331V0.333313H3.33337V2.33331C3.33337 2.59853 3.22802 2.85288 3.04048 3.04042C2.85294 3.22796 2.59859 3.33331 2.33337 3.33331ZM3.00004 7.66665H6.00004V8.33331H3.00004V7.66665ZM3.66671 9.99998H6.33337V10.6666H3.66671V9.99998ZM3.66671 5.33331H6.33337V5.99998H3.66671V5.33331ZM3.00004 14.6666H2.33337C2.06816 14.6666 1.8138 14.5613 1.62627 14.3738C1.43873 14.1862 1.33337 13.9319 1.33337 13.6666V13H2.00004V13.6666C2.00004 13.7551 2.03516 13.8398 2.09767 13.9023C2.16018 13.9649 2.24497 14 2.33337 14H3.00004V14.6666Z" fill="black"/>
</svg>
